<svg xmlns="http://www.w3.org/2000/svg" width="16" height="16.439" viewBox="0 0 16 16.439">
  <g id="Group_33086" data-name="Group 33086" transform="translate(-4.073 -3.573)" opacity="0.7">
    <g id="Group_33086-2" data-name="Group 33086" transform="translate(4.073 3.573)">
      <rect id="Rectangle_14819" data-name="Rectangle 14819" width="16" height="16" transform="translate(0 0)" fill="#fff" opacity="0"/>
      <g id="Calendar" transform="translate(0.368 0)">
        <path id="Calendar-2" data-name="Calendar" d="M4.322,16.439a4.442,4.442,0,0,1-3.159-1.113A4.141,4.141,0,0,1,0,12.25V5.331A4.041,4.041,0,0,1,1.163,2.3a4.3,4.3,0,0,1,2.724-1.08V.573A.588.588,0,0,1,5.056.5l.005.078v.634h5.15V.573A.588.588,0,0,1,11.38.5l.005.078v.648A4.266,4.266,0,0,1,14.14,2.33a4.041,4.041,0,0,1,1.124,3v6.977A4.053,4.053,0,0,1,14.1,15.343a4.48,4.48,0,0,1-3.161,1.1ZM1.174,12.25c0,1.962,1.118,3.042,3.148,3.042h6.62c2.029,0,3.148-1.059,3.148-2.984v-5.5H1.174ZM14.09,5.661V5.329a2.914,2.914,0,0,0-.782-2.19,3.014,3.014,0,0,0-1.923-.769V3.09a.588.588,0,0,1-1.169.078L10.21,3.09V2.354H5.061V3.09a.588.588,0,0,1-1.169.078L3.887,3.09V2.371A2.691,2.691,0,0,0,1.174,5.331v.331Zm-3.567,6.531a.577.577,0,0,1,.508-.568l.086-.005a.573.573,0,0,1,.08,1.141l-.08.005A.582.582,0,0,1,10.523,12.193Zm-3.474,0a.578.578,0,0,1,.508-.568l.087-.005a.573.573,0,0,1,.08,1.141l-.08.005A.582.582,0,0,1,7.048,12.193Zm-3.48,0a.577.577,0,0,1,.508-.568l.086-.005a.573.573,0,0,1,.08,1.141l-.087.005A.58.58,0,0,1,3.568,12.193Zm6.955-2.972a.577.577,0,0,1,.508-.568l.086-.005a.573.573,0,0,1,.08,1.141l-.08.005A.582.582,0,0,1,10.523,9.221Zm-3.474,0a.578.578,0,0,1,.508-.568l.087-.005a.573.573,0,0,1,.08,1.141l-.08.005A.582.582,0,0,1,7.048,9.221Zm-3.48,0a.577.577,0,0,1,.508-.568l.086-.005a.573.573,0,0,1,.08,1.141l-.087.005A.58.58,0,0,1,3.568,9.221Z" transform="translate(0)" fill="#fff"/>
      </g>
    </g>
  </g>
</svg>
