<svg xmlns="http://www.w3.org/2000/svg" width="21" height="20" viewBox="0 0 21 20">
  <g id="facture-icone" transform="translate(0.5)">
    <g id="Group_29070" data-name="Group 29070" transform="translate(-0.009 0.989)">
      <g id="Group_19" data-name="Group 19" transform="translate(0.009 0.011)">
        <path id="Subtraction_1" data-name="Subtraction 1" d="M16.659,18a2.794,2.794,0,0,1-2.046-.908l-.009-.008-.016-.015a1.653,1.653,0,0,0-1.271-.612,1.7,1.7,0,0,0-1.277.627l-.006.005a2.76,2.76,0,0,1-4.1,0l-.006-.005-.02-.018a1.6,1.6,0,0,0-2.517,0l-.017.016-.009.008a2.76,2.76,0,0,1-4.1-.006l-.081-.074L1.176,17l-.1-.087A3.047,3.047,0,0,1,.006,14.646C0,11.5,0,5.215,0,5.152A5.2,5.2,0,0,1,1.276,1.235,5.64,5.64,0,0,1,5.342,0h9.306c3.4,0,5.342,1.878,5.342,5.152L20,14.61a3.065,3.065,0,0,1-1.1,2.3l-.109.1-.011.011-.067.062,0,0A2.79,2.79,0,0,1,16.659,18ZM5.593,9.31a.831.831,0,1,0,0,1.661H14.3a.831.831,0,1,0,0-1.661Zm0-4.865a.838.838,0,0,0,0,1.672H14.3c.028,0,.055,0,.088,0a.883.883,0,0,0,.743-.4.818.818,0,0,0-.271-1.153.906.906,0,0,0-.455-.13,1.067,1.067,0,0,0-.111.007h-8.7Z" transform="translate(0 0)" fill="#d9f777" stroke="rgba(0,0,0,0)" stroke-width="1"/>
      </g>
    </g>
    <rect id="Rectangle_14963" data-name="Rectangle 14963" width="20" height="20" transform="translate(0)" fill="none" opacity="0.184"/>
  </g>
</svg>
