<svg id="prestataire-icone" xmlns="http://www.w3.org/2000/svg" width="20" height="20" viewBox="0 0 20 20">
  <rect id="Rectangle_17308" data-name="Rectangle 17308" width="20" height="20" fill="#fff" opacity="0"/>
  <g id="Folder">
    <path id="Folder-2" data-name="Folder" d="M6.229,20a6.277,6.277,0,0,1-4.564-1.665A6.275,6.275,0,0,1,0,13.772V6.229A7.007,7.007,0,0,1,1.33,1.594,5.149,5.149,0,0,1,5.453,0H7.385A2.941,2.941,0,0,1,9.728,1.173l.882,1.175a1.5,1.5,0,0,0,1.185.594H14.53C18.262,2.941,20,4.857,20,8.97l-.026,4.8a6.28,6.28,0,0,1-1.663,4.563A6.267,6.267,0,0,1,13.753,20ZM1.45,6.229v7.543a4.806,4.806,0,0,0,1.24,3.537,4.809,4.809,0,0,0,3.539,1.239h7.524a4.8,4.8,0,0,0,3.533-1.241,4.816,4.816,0,0,0,1.238-3.54l.027-4.8a5.232,5.232,0,0,0-.913-3.52A3.863,3.863,0,0,0,14.53,4.393H11.794A2.953,2.953,0,0,1,9.452,3.22L8.569,2.045a1.486,1.486,0,0,0-1.184-.593H5.453C2.647,1.452,1.45,2.88,1.45,6.229Zm3.9,7.041a.726.726,0,0,1-.1-1.444l.1-.007h9.271a.726.726,0,0,1,.1,1.445l-.1.006Z" fill="#fff"/>
  </g>
</svg>
