<svg id="prestataire-icone" xmlns="http://www.w3.org/2000/svg" width="20" height="20.001" viewBox="0 0 20 20.001">
  <g id="Folder" transform="translate(0 0)">
    <path id="Folder-2" data-name="Folder" d="M13.75,20H6.24C2.391,20,0,17.606,0,13.75V6.241C0,2.1,1.84,0,5.47,0H7.081A2.956,2.956,0,0,1,9.42,1.15L10.3,2.32a1.472,1.472,0,0,0,1.15.56h3.07a5.446,5.446,0,0,1,4,1.361A6.36,6.36,0,0,1,20,8.89v4.87a6.278,6.278,0,0,1-1.674,4.568A6.3,6.3,0,0,1,13.75,20ZM5.37,11.79a.743.743,0,0,0-.751.751.751.751,0,0,0,.751.75h9.26a.746.746,0,0,0,.74-.75.737.737,0,0,0-.74-.751Z" transform="translate(0 0)" fill="#d9f777"/>
  </g>
  <rect id="Rectangle_17308" data-name="Rectangle 17308" width="20" height="20" transform="translate(0 0)" fill="#fff" opacity="0"/>
</svg>
