<svg xmlns="http://www.w3.org/2000/svg" width="12" height="12" viewBox="0 0 12 12">
  <path id="Subtraction_31" data-name="Subtraction 31" d="M6,12a6,6,0,1,1,6-6A6.007,6.007,0,0,1,6,12ZM5.521,8.19a.752.752,0,0,0-.361.089.721.721,0,0,0-.266.243.6.6,0,0,0-.1.332.592.592,0,0,0,.1.33.753.753,0,0,0,.266.243.758.758,0,0,0,.721,0,.723.723,0,0,0,.263-.243.6.6,0,0,0,.1-.33.613.613,0,0,0-.1-.332.694.694,0,0,0-.263-.243A.752.752,0,0,0,5.521,8.19Zm.5-4.013a1.155,1.155,0,0,1,.656.176.554.554,0,0,1,.26.484v.058a.552.552,0,0,1-.1.315,1.4,1.4,0,0,1-.259.28c-.1.085-.253.2-.463.353-.249.166-.448.311-.593.431a1.731,1.731,0,0,0-.366.416,1.114,1.114,0,0,0-.163.539.394.394,0,0,0,.153.327.655.655,0,0,0,.416.121.523.523,0,0,0,.311-.086.817.817,0,0,0,.211-.226,1.414,1.414,0,0,1,.292-.416,4.231,4.231,0,0,1,.477-.4c.3-.219.542-.406.711-.554a2.017,2.017,0,0,0,.419-.507,1.278,1.278,0,0,0,.166-.647V4.75a1.457,1.457,0,0,0-.277-.874,1.819,1.819,0,0,0-.753-.594,2.571,2.571,0,0,0-1.051-.212,2.675,2.675,0,0,0-1.159.243,3.166,3.166,0,0,0-.88.609.512.512,0,0,0-.137.2.62.62,0,0,0-.042.217.49.49,0,0,0,.158.373.559.559,0,0,0,.395.146.418.418,0,0,0,.171-.036.826.826,0,0,0,.169-.1c.058-.045.1-.076.113-.092a1.764,1.764,0,0,1,.54-.344A1.749,1.749,0,0,1,6.022,4.177Z" fill="#d9f777"/>
</svg>
