<svg xmlns="http://www.w3.org/2000/svg" width="31" height="31" viewBox="0 0 31 31">
  <g id="calendrier-medium" transform="translate(0 0)">
    <g id="Group_28039" data-name="Group 28039" transform="translate(-1376 -639)">
      <rect id="Rectangle_14821" data-name="Rectangle 14821" width="31" height="31" transform="translate(1376 639)" fill="none"/>
      <g id="Calendar" transform="translate(1376.488 639.449)">
        <path id="Calendar-2" data-name="Calendar" d="M8.211,31a8.3,8.3,0,0,1-6-2.176A8.232,8.232,0,0,1,0,22.809V10.425A8.032,8.032,0,0,1,2.209,4.5,8.035,8.035,0,0,1,7.384,2.389V1.121A1.115,1.115,0,0,1,9.6.969l.01.152v1.24H19.4V1.121A1.115,1.115,0,0,1,21.619.969l.009.152V2.389a8,8,0,0,1,5.217,2.148A8.026,8.026,0,0,1,29,10.425v12.5a8.05,8.05,0,0,1-2.208,5.934,8.365,8.365,0,0,1-6,2.143Zm-5.98-7.918c0,3.662,2.123,5.679,5.98,5.679H20.789a6.321,6.321,0,0,0,4.435-1.427,5.4,5.4,0,0,0,1.545-4.144V13.315H2.231Zm24.538-12.01v-.912a5.43,5.43,0,0,0-1.425-4.03,5.74,5.74,0,0,0-3.716-1.493V6.042a1.115,1.115,0,0,1-2.221.152L19.4,6.042V4.6H9.615V6.042a1.115,1.115,0,0,1-2.221.152l-.01-.152V4.636A5.836,5.836,0,0,0,3.778,6.028a5.377,5.377,0,0,0-1.547,4.133v.909ZM19.99,23.844a1.12,1.12,0,0,1,.965-1.112l.165-.009a1.122,1.122,0,0,1,.151,2.232l-.151.01A1.121,1.121,0,0,1,19.99,23.844Zm-6.6,0a1.12,1.12,0,0,1,.964-1.112l.166-.009a1.122,1.122,0,0,1,.151,2.232l-.151.01A1.121,1.121,0,0,1,13.391,23.844Zm-6.613,0a1.12,1.12,0,0,1,.964-1.112l.165-.009a1.122,1.122,0,0,1,.151,2.232l-.165.01A1.118,1.118,0,0,1,6.779,23.844ZM19.99,18.033a1.118,1.118,0,0,1,.965-1.111l.165-.01a1.122,1.122,0,0,1,.151,2.232l-.151.01A1.121,1.121,0,0,1,19.99,18.033Zm-6.6,0a1.118,1.118,0,0,1,.964-1.111l.166-.01a1.122,1.122,0,0,1,.151,2.232l-.151.01A1.121,1.121,0,0,1,13.391,18.033Zm-6.613,0a1.118,1.118,0,0,1,.964-1.111l.165-.01a1.122,1.122,0,0,1,.151,2.232l-.165.01A1.118,1.118,0,0,1,6.779,18.033Z" transform="translate(0.512 -0.449)" fill="#fff"/>
      </g>
    </g>
  </g>
</svg>
