<svg xmlns="http://www.w3.org/2000/svg" width="64" height="64" viewBox="0 0 64 64">
  <g id="logiciel" transform="translate(-215 -401)">
    <rect id="Rectangle_17674" data-name="Rectangle 17674" width="64" height="64" transform="translate(215 401)" fill="#fff" opacity="0"/>
    <g id="Group_32225" data-name="Group 32225" transform="translate(228.172 413.692)">
      <g id="Group_32226" data-name="Group 32226">
        <g id="Group_32223" data-name="Group 32223">
          <g id="Group_32227" data-name="Group 32227">
            <g id="Rectangle_17680" data-name="Rectangle 17680" transform="translate(-0.172 -0.692)" fill="none" stroke="#7971f5" stroke-width="0.5">
              <rect width="38" height="41" rx="0.5" stroke="none"/>
              <rect x="0.25" y="0.25" width="37.5" height="40.5" rx="0.25" fill="none"/>
            </g>
            <rect id="Rectangle_17676" data-name="Rectangle 17676" width="10.589" height="4.213" transform="translate(13.531 6.405)" fill="#7971f5" opacity="0.2"/>
            <rect id="Rectangle_17677" data-name="Rectangle 17677" width="10.589" height="4.213" transform="translate(24.803 6.405)" fill="#7971f5" opacity="0.2"/>
            <path id="Path_30791" data-name="Path 30791" d="M26.746,75.644V70.432H16.157V101.3H49.29V75.644Z" transform="translate(-13.898 -64.027)" fill="none" stroke="#7971f5" stroke-linecap="round" stroke-linejoin="round" stroke-width="0.5"/>
            <rect id="Rectangle_17678" data-name="Rectangle 17678" width="22.089" height="11.302" transform="translate(4.65 15.627)" fill="none" stroke="#7971f5" stroke-linecap="round" stroke-linejoin="round" stroke-width="0.5"/>
            <path id="Path_30799" data-name="Path 30799" d="M38.242,3.016H.5V1.2A.7.7,0,0,1,1.2.5H37.543a.7.7,0,0,1,.7.7Z" transform="translate(-0.43 -0.43)" fill="none"/>
            <path id="Rectangle_17681" data-name="Rectangle 17681" d="M1,0H37a1,1,0,0,1,1,1V4a0,0,0,0,1,0,0H0A0,0,0,0,1,0,4V1A1,1,0,0,1,1,0Z" transform="translate(-0.172 -0.692)" fill="#7971f5"/>
            <path id="Path_30800" data-name="Path 30800" d="M169.932,220.47H160.14a.626.626,0,0,1-.626-.626v-3.871a.626.626,0,0,1,.626-.626h9.792a.626.626,0,0,1,.626.626v3.871a.626.626,0,0,1-.626.626" transform="translate(-137.215 -185.244)" fill="#7971f5"/>
          </g>
        </g>
      </g>
    </g>
  </g>
</svg>
