<svg xmlns="http://www.w3.org/2000/svg" xmlns:xlink="http://www.w3.org/1999/xlink" width="295" height="123" viewBox="0 0 295 123">
  <defs>
    <clipPath id="clip-path">
      <rect id="Rectangle_17916" data-name="Rectangle 17916" width="295" height="123" rx="16" transform="translate(-24087 5995)" fill="#fff" opacity="0.578"/>
    </clipPath>
    <linearGradient id="linear-gradient" x1="0.282" y1="0.292" x2="1" y2="1.562" gradientUnits="objectBoundingBox">
      <stop offset="0" stop-color="#fff" stop-opacity="0"/>
      <stop offset="1" stop-color="#fff"/>
    </linearGradient>
  </defs>
  <g id="motif-cercles" transform="translate(24087 -5995)" clip-path="url(#clip-path)">
    <path id="Union_242" data-name="Union 242" d="M118.8,92.022a1.715,1.715,0,1,1,1.715,1.715A1.717,1.717,0,0,1,118.8,92.022Zm-14.851,0a1.716,1.716,0,1,1,1.715,1.715A1.718,1.718,0,0,1,103.948,92.022Zm-14.851,0a1.715,1.715,0,1,1,1.715,1.715A1.717,1.717,0,0,1,89.1,92.022Zm-14.849,0a1.715,1.715,0,1,1,1.715,1.715A1.717,1.717,0,0,1,74.248,92.022Zm-14.851,0a1.715,1.715,0,1,1,1.715,1.715A1.718,1.718,0,0,1,59.4,92.022Zm-14.848,0a1.715,1.715,0,1,1,1.715,1.715A1.718,1.718,0,0,1,44.549,92.022Zm-14.85,0a1.715,1.715,0,1,1,1.715,1.715A1.717,1.717,0,0,1,29.7,92.022Zm-14.85,0a1.715,1.715,0,1,1,1.715,1.715A1.717,1.717,0,0,1,14.849,92.022ZM0,92.022a1.715,1.715,0,1,1,1.715,1.715A1.717,1.717,0,0,1,0,92.022ZM118.8,77.138a1.715,1.715,0,1,1,1.715,1.715A1.717,1.717,0,0,1,118.8,77.138Zm-14.851,0a1.716,1.716,0,1,1,1.715,1.715A1.718,1.718,0,0,1,103.948,77.138Zm-14.851,0a1.715,1.715,0,1,1,1.715,1.715A1.717,1.717,0,0,1,89.1,77.138Zm-14.849,0a1.715,1.715,0,1,1,1.715,1.715A1.717,1.717,0,0,1,74.248,77.138Zm-14.851,0a1.715,1.715,0,1,1,1.715,1.715A1.718,1.718,0,0,1,59.4,77.138Zm-14.848,0a1.715,1.715,0,1,1,1.715,1.715A1.718,1.718,0,0,1,44.549,77.138Zm-14.85,0a1.715,1.715,0,1,1,1.715,1.715A1.717,1.717,0,0,1,29.7,77.138Zm-14.85,0a1.715,1.715,0,1,1,1.715,1.715A1.717,1.717,0,0,1,14.849,77.138ZM0,77.138a1.715,1.715,0,1,1,1.715,1.715A1.717,1.717,0,0,1,0,77.138ZM118.8,62.254a1.715,1.715,0,1,1,1.715,1.715A1.718,1.718,0,0,1,118.8,62.254Zm-14.851,0a1.716,1.716,0,1,1,1.715,1.715A1.718,1.718,0,0,1,103.948,62.254Zm-14.851,0a1.715,1.715,0,1,1,1.715,1.715A1.718,1.718,0,0,1,89.1,62.254Zm-14.849,0a1.715,1.715,0,1,1,1.715,1.715A1.718,1.718,0,0,1,74.248,62.254Zm-14.851,0a1.715,1.715,0,1,1,1.715,1.715A1.718,1.718,0,0,1,59.4,62.254Zm-14.848,0a1.715,1.715,0,1,1,1.715,1.715A1.718,1.718,0,0,1,44.549,62.254Zm-14.85,0a1.715,1.715,0,1,1,1.715,1.715A1.718,1.718,0,0,1,29.7,62.254Zm-14.85,0a1.715,1.715,0,1,1,1.715,1.715A1.718,1.718,0,0,1,14.849,62.254ZM0,62.254a1.715,1.715,0,1,1,1.715,1.715A1.717,1.717,0,0,1,0,62.254ZM118.8,47.367a1.715,1.715,0,1,1,1.715,1.715A1.718,1.718,0,0,1,118.8,47.367Zm-14.851,0a1.716,1.716,0,1,1,1.715,1.715A1.718,1.718,0,0,1,103.948,47.367Zm-14.851,0a1.715,1.715,0,1,1,1.715,1.715A1.718,1.718,0,0,1,89.1,47.367Zm-14.849,0a1.715,1.715,0,1,1,1.715,1.715A1.718,1.718,0,0,1,74.248,47.367Zm-14.851,0a1.715,1.715,0,1,1,1.715,1.715A1.718,1.718,0,0,1,59.4,47.367Zm-14.848,0a1.715,1.715,0,1,1,1.715,1.715A1.718,1.718,0,0,1,44.549,47.367Zm-14.85,0a1.715,1.715,0,1,1,1.715,1.715A1.718,1.718,0,0,1,29.7,47.367Zm-14.85,0a1.715,1.715,0,1,1,1.715,1.715A1.718,1.718,0,0,1,14.849,47.367ZM0,47.367a1.715,1.715,0,1,1,1.715,1.715A1.717,1.717,0,0,1,0,47.367ZM118.8,32.485a1.715,1.715,0,1,1,1.715,1.715A1.717,1.717,0,0,1,118.8,32.485Zm-14.851,0a1.716,1.716,0,1,1,1.715,1.715A1.718,1.718,0,0,1,103.948,32.485Zm-14.851,0A1.715,1.715,0,1,1,90.813,34.2,1.717,1.717,0,0,1,89.1,32.485Zm-14.849,0A1.715,1.715,0,1,1,75.964,34.2,1.717,1.717,0,0,1,74.248,32.485Zm-14.851,0A1.715,1.715,0,1,1,61.113,34.2,1.718,1.718,0,0,1,59.4,32.485Zm-14.848,0A1.715,1.715,0,1,1,46.264,34.2,1.718,1.718,0,0,1,44.549,32.485Zm-14.85,0A1.715,1.715,0,1,1,31.415,34.2,1.717,1.717,0,0,1,29.7,32.485Zm-14.85,0A1.715,1.715,0,1,1,16.565,34.2,1.717,1.717,0,0,1,14.849,32.485ZM0,32.485A1.715,1.715,0,1,1,1.715,34.2,1.717,1.717,0,0,1,0,32.485ZM118.8,17.6a1.715,1.715,0,1,1,1.715,1.715A1.718,1.718,0,0,1,118.8,17.6Zm-14.851,0a1.716,1.716,0,1,1,1.715,1.715A1.718,1.718,0,0,1,103.948,17.6ZM89.1,17.6a1.715,1.715,0,1,1,1.715,1.715A1.718,1.718,0,0,1,89.1,17.6Zm-14.849,0a1.715,1.715,0,1,1,1.715,1.715A1.718,1.718,0,0,1,74.248,17.6ZM59.4,17.6a1.715,1.715,0,1,1,1.715,1.715A1.718,1.718,0,0,1,59.4,17.6Zm-14.848,0a1.715,1.715,0,1,1,1.715,1.715A1.718,1.718,0,0,1,44.549,17.6Zm-14.85,0a1.715,1.715,0,1,1,1.715,1.715A1.718,1.718,0,0,1,29.7,17.6Zm-14.85,0a1.715,1.715,0,1,1,1.715,1.715A1.718,1.718,0,0,1,14.849,17.6ZM0,17.6a1.715,1.715,0,1,1,1.715,1.715A1.717,1.717,0,0,1,0,17.6ZM118.8,2.715a1.715,1.715,0,1,1,1.715,1.715A1.717,1.717,0,0,1,118.8,2.715Zm-14.851,0a1.716,1.716,0,1,1,1.715,1.715A1.718,1.718,0,0,1,103.948,2.715Zm-14.851,0a1.715,1.715,0,1,1,1.715,1.715A1.717,1.717,0,0,1,89.1,2.715Zm-14.849,0a1.715,1.715,0,1,1,1.715,1.715A1.717,1.717,0,0,1,74.248,2.715Zm-14.851,0a1.715,1.715,0,1,1,1.715,1.715A1.718,1.718,0,0,1,59.4,2.715Zm-14.848,0a1.715,1.715,0,1,1,1.715,1.715A1.718,1.718,0,0,1,44.549,2.715Zm-14.85,0a1.715,1.715,0,1,1,1.715,1.715A1.717,1.717,0,0,1,29.7,2.715Zm-14.85,0a1.715,1.715,0,1,1,1.715,1.715A1.717,1.717,0,0,1,14.849,2.715ZM0,2.715A1.715,1.715,0,1,1,1.715,4.431,1.717,1.717,0,0,1,0,2.715Z" transform="translate(-23908.541 6031.262)" fill="url(#linear-gradient)"/>
  </g>
</svg>
