<svg id="cercle-fleches-violet" xmlns="http://www.w3.org/2000/svg" width="48" height="48" viewBox="0 0 48 48">
  <rect id="Rectangle_17684" data-name="Rectangle 17684" width="48" height="48" fill="#fff" opacity="0"/>
  <g id="noun-update-6494657" transform="translate(0.736 1.5)">
    <g id="Group_32235" data-name="Group 32235" transform="translate(3.264 2.5)">
      <g id="Group_32229" data-name="Group 32229" transform="translate(3.289 4.786)">
        <path id="Path_30801" data-name="Path 30801" d="M14.005,40.313a.645.645,0,0,1-.56-.325,17.833,17.833,0,0,1-2.253-6.9,18.228,18.228,0,0,1-.117-2.046A17.986,17.986,0,0,1,23.515,13.9a.645.645,0,0,1,.4,1.227A16.7,16.7,0,0,0,12.365,31.047a16.936,16.936,0,0,0,.109,1.9,16.555,16.555,0,0,0,2.091,6.4.645.645,0,0,1-.559.966Z" transform="translate(-11.074 -13.867)" fill="#d9f777" stroke="#d9f777" stroke-width="1"/>
      </g>
      <g id="Group_32230" data-name="Group 32230" transform="translate(21.387 3.932)">
        <path id="Path_30802" data-name="Path 30802" d="M70.125,34.115a.663.663,0,0,1-.134-.014.646.646,0,0,1-.5-.764A16.741,16.741,0,0,0,53.172,13.129a.645.645,0,0,1,0-1.29h0A18.048,18.048,0,0,1,70.756,33.6.646.646,0,0,1,70.125,34.115Z" transform="translate(-52.529 -11.839)" fill="#d9f777" stroke="#d9f777" stroke-width="1"/>
      </g>
      <g id="Group_32231" data-name="Group 32231" transform="translate(9.699 30.145)">
        <path id="Path_30803" data-name="Path 30803" d="M37.038,83.95a17.994,17.994,0,0,1-12.053-4.622.645.645,0,0,1,.863-.959,16.739,16.739,0,0,0,25.618-3.955.645.645,0,1,1,1.111.655A18.024,18.024,0,0,1,37.038,83.95Z" transform="translate(-24.771 -74.095)" fill="#d9f777" stroke="#d9f777" stroke-width="1"/>
      </g>
      <g id="Group_32232" data-name="Group 32232" transform="translate(21.071)">
        <path id="Path_30804" data-name="Path 30804" d="M57.2,11.906a.643.643,0,0,1-.456-.189L52.558,7.533a.645.645,0,0,1,.028-.938l4.423-3.931a.645.645,0,1,1,.857.964L53.954,7.1l3.7,3.7a.645.645,0,0,1-.456,1.1Z" transform="translate(-52.369 -2.5)" fill="#d9f777" stroke="#d9f777" stroke-width="1"/>
      </g>
      <g id="Group_32233" data-name="Group 32233" transform="translate(30.662 30.015)">
        <path id="Path_30805" data-name="Path 30805" d="M82.113,80.873a.645.645,0,0,1-.631-.515l-1.056-5.126-5.055,1.355a.645.645,0,0,1-.334-1.247l5.716-1.532a.645.645,0,0,1,.8.493l1.193,5.8a.645.645,0,0,1-.5.762A.637.637,0,0,1,82.113,80.873Z" transform="translate(-74.559 -73.787)" fill="#d9f777" stroke="#d9f777" stroke-width="1"/>
      </g>
      <g id="Group_32234" data-name="Group 32234" transform="translate(0 24.3)">
        <path id="Path_30806" data-name="Path 30806" d="M9.526,67.218a.65.65,0,0,1-.2-.033L3.706,65.321A.645.645,0,1,1,4.113,64.1L9.08,65.745l1.354-5.055a.645.645,0,0,1,1.247.334L10.149,66.74a.646.646,0,0,1-.623.478Z" transform="translate(-3.264 -60.213)" fill="#d9f777" stroke="#d9f777" stroke-width="1"/>
      </g>
    </g>
  </g>
</svg>
